<?xml version="1.0" encoding="UTF-8" standalone="no"?>
<!DOCTYPE svg PUBLIC "-//W3C//DTD SVG 1.1//EN" "http://www.w3.org/Graphics/SVG/1.1/DTD/svg11.dtd">
<svg width="100%" height="100%" viewBox="0 0 112 172" version="1.1" xmlns="http://www.w3.org/2000/svg" xmlns:xlink="http://www.w3.org/1999/xlink" xml:space="preserve" xmlns:serif="http://www.serif.com/" style="fill-rule:evenodd;clip-rule:evenodd;stroke-linejoin:round;stroke-miterlimit:2;">
    <g transform="matrix(1,0,0,1,-223.062,-263.364)">
        <g>
            <g transform="matrix(0.783051,0,-7.70372e-33,0.702857,97.0653,132.465)">
                <ellipse cx="206.662" cy="403.393" rx="45.757" ry="27.144" style="fill:white;"/>
            </g>
            <g transform="matrix(1.33627e-17,-0.684348,0.212703,-1.76956e-16,250.818,550.478)">
                <rect x="329.479" y="203.939" width="14.612" height="188.056" style="fill:white;"/>
            </g>
            <g transform="matrix(0.50857,-0.457918,0.24907,0.276621,9.60655,364.516)">
                <rect x="329.479" y="203.939" width="14.612" height="188.056" style="fill:white;"/>
            </g>
            <g transform="matrix(0.684348,0,0,0.531757,58.8998,206.554)">
                <rect x="329.479" y="203.939" width="14.612" height="188.056" style="fill:white;"/>
            </g>
            <g transform="matrix(0.684348,0,0,0.531757,46.6418,206.554)">
                <rect x="329.479" y="203.939" width="14.612" height="188.056" style="fill:white;"/>
            </g>
        </g>
    </g>
</svg>
